<svg xmlns="http://www.w3.org/2000/svg" width="975" height="500" viewBox="0 0 2925 1500" fill="none">
  <path d="M530.43 613.72C550.58 574.62 577.95 544.54 612.56 523.47C647.15 502.42 685.8 491.88 728.53 491.88C765.83 491.88 798.47 499.41 826.45 514.44C854.43 529.49 876.83 548.44 893.69 571.3V500H1020.94V999.99H893.69V926.89C877.44 950.35 855.02 969.76 826.45 985.1C797.87 1000.44 764.92 1008.11 727.63 1008.11C685.51 1008.11 647.15 997.28 612.56 975.62C577.95 953.96 550.58 923.43 530.43 884.02C510.26 844.62 500.2 799.34 500.2 748.19C500.2 697.04 510.27 652.84 530.43 613.72ZM875.64 671.02C863.6 649.06 847.35 632.21 826.9 620.48C806.44 608.75 784.48 602.88 761.02 602.88C737.56 602.88 715.9 608.6 696.04 620.03C676.18 631.47 660.08 648.16 647.76 670.12C635.42 692.09 629.26 718.11 629.26 748.19C629.26 778.27 635.42 804.6 647.76 827.16C660.09 849.72 676.33 867.03 696.5 879.05C716.65 891.09 738.16 897.1 761.03 897.1C783.9 897.1 806.45 891.23 826.91 879.5C847.36 867.77 863.6 850.93 875.65 828.96C887.68 807 893.7 780.68 893.7 749.99C893.7 719.3 887.68 692.99 875.65 671.02H875.64Z" fill="#F2F2F2"/>
  <path d="M1610.44 513.99C1638.71 528.74 1660.98 547.83 1677.23 571.3V500H1804.48V1007.21C1804.48 1053.53 1795.14 1094.89 1776.5 1131.3C1757.84 1167.7 1729.87 1196.58 1692.57 1217.94C1655.26 1239.29 1610.13 1249.98 1557.19 1249.98C1486.19 1249.98 1427.98 1233.42 1382.56 1200.34C1337.12 1167.24 1311.4 1122.12 1305.4 1050H1430.85C1437.46 1087.82 1451.75 1106.03 1473.72 1119.57C1495.68 1133.11 1522.3 1139.88 1553.59 1139.88C1590.28 1139.88 1620.06 1128.89 1642.94 1106.94C1665.8 1084.97 1677.23 1051.73 1677.23 1007.21V925.98C1660.98 949.44 1638.56 969 1609.99 984.64C1581.41 1000.28 1548.76 1008.1 1512.07 1008.1C1469.95 1008.1 1431.44 997.27 1396.55 975.61C1361.65 953.95 1334.12 923.42 1313.97 884.01C1293.8 844.61 1283.74 799.33 1283.74 748.18C1283.74 697.03 1293.81 652.83 1313.97 613.71C1334.12 574.61 1361.49 544.53 1396.1 523.46C1430.69 502.41 1469.34 491.87 1512.07 491.87C1549.37 491.87 1582.15 499.25 1610.44 513.98V513.99ZM1659.17 671.02C1647.13 649.06 1630.88 632.21 1610.43 620.48C1589.97 608.75 1568.01 602.88 1544.55 602.88C1521.09 602.88 1499.43 608.6 1479.57 620.03C1459.71 631.47 1443.61 648.16 1431.29 670.12C1418.95 692.09 1412.79 718.11 1412.79 748.19C1412.79 778.27 1418.95 804.6 1431.29 827.16C1443.62 849.72 1459.86 867.03 1480.03 879.05C1500.18 891.09 1521.69 897.1 1544.56 897.1C1567.43 897.1 1589.98 891.23 1610.44 879.5C1630.89 867.77 1647.13 850.93 1659.18 828.96C1671.21 807 1677.23 780.68 1677.23 749.99C1677.23 719.3 1671.21 692.99 1659.18 671.02H1659.17Z" fill="#F2F2F2"/>
  <path d="M1983.04 976.07C1944.53 954.72 1914.29 924.49 1892.34 885.37C1870.37 846.27 1859.4 801.14 1859.4 749.99C1859.4 698.84 1870.68 653.73 1893.24 614.61C1915.8 575.51 1946.63 545.27 1985.75 523.91C2024.85 502.56 2068.47 491.87 2116.61 491.87C2164.75 491.87 2208.36 502.56 2247.47 523.91C2286.57 545.27 2317.41 575.51 2339.98 614.61C2362.54 653.73 2373.82 698.85 2373.82 749.99C2373.82 801.13 2362.23 846.26 2339.07 885.37C2315.9 924.49 2284.61 954.72 2245.21 976.07C2205.8 997.43 2161.73 1008.11 2112.99 1008.11C2064.25 1008.11 2021.53 997.44 1983.03 976.07H1983.04ZM2177.53 881.31C2197.68 870.18 2213.77 853.49 2225.81 831.22C2237.84 808.97 2243.86 781.89 2243.86 750C2243.86 702.48 2231.37 665.93 2206.41 640.35C2181.44 614.78 2150.91 601.99 2114.81 601.99C2078.71 601.99 2048.48 614.78 2024.11 640.35C1999.74 665.93 1987.56 702.48 1987.56 750C1987.56 797.52 1999.43 834.09 2023.21 859.65C2046.97 885.23 2076.91 898.01 2113.01 898.01C2135.87 898.01 2157.37 892.45 2177.54 881.31H2177.53Z" fill="#F2F2F2"/>
  <path d="M1162.63 450C1204.05 450 1237.63 416.421 1237.63 375C1237.63 333.579 1204.05 300 1162.63 300C1121.21 300 1087.63 333.579 1087.63 375C1087.63 416.421 1121.21 450 1162.63 450Z" fill="#F2F2F2"/>
  <path d="M1225.8 500V999.99H1099.45V500H1225.8Z" fill="#F2F2F2"/>
  <path d="M2625 450H2624.43C2514.24 449.69 2425 360.27 2425 250.01C2425 360.27 2335.77 449.69 2225.57 450C2335.76 450.31 2425 539.73 2425 649.99C2425 539.73 2514.23 450.31 2624.43 450H2625Z" fill="#FF4627"/>
</svg>